<?xml version="1.0" encoding="UTF-8" standalone="no"?>
<svg
   className="w-16 md:w-20"
   viewBox="0 0 200 200"
   version="1.1"
   id="svg1"
   sodipodi:docname="logo.svg"
   width="200"
   height="200"
   inkscape:version="1.4 (86a8ad7, 2024-10-11)"
   xmlns:inkscape="http://www.inkscape.org/namespaces/inkscape"
   xmlns:sodipodi="http://sodipodi.sourceforge.net/DTD/sodipodi-0.dtd"
   xmlns="http://www.w3.org/2000/svg"
   xmlns:svg="http://www.w3.org/2000/svg">
  <defs
     id="defs1" />
  <sodipodi:namedview
     id="namedview1"
     pagecolor="#ffffff"
     bordercolor="#000000"
     borderopacity="0.25"
     inkscape:showpageshadow="2"
     inkscape:pageopacity="0.0"
     inkscape:pagecheckerboard="0"
     inkscape:deskcolor="#d1d1d1"
     inkscape:zoom="1.0233333"
     inkscape:cx="-88.925081"
     inkscape:cy="42.019544"
     inkscape:window-width="1366"
     inkscape:window-height="697"
     inkscape:window-x="-8"
     inkscape:window-y="-8"
     inkscape:window-maximized="1"
     inkscape:current-layer="svg1" />
  <g
     id="g2">
    <circle
       style="fill:#22220f;fill-opacity:1;stroke-width:13.3334"
       id="path2"
       cx="100"
       cy="100"
       r="100" />
    <path
       fill="currentColor"
       d="m 124.49052,70.358306 -48.194987,0.01809 6.586678,8.561234 c 0.528476,0.52327 1.018936,0.612214 1.561145,0.623218 l 31.947924,-0.07752 c 0.7903,-0.0082 1.62624,0.390507 2.04535,1.163754 l 19.96313,35.657256 c 0.61015,0.89566 1.38322,1.52513 2.22725,1.5689 l 5.64513,0.0305 c 1.29445,-0.0871 1.88705,-0.7152 2.40606,-1.49862 l 14.96756,-26.524997 0.015,34.860407 11.72486,0.0165 -5.1e-4,-52.696012 c 0.0433,-1.117798 -0.63375,-1.694304 -1.71308,-1.688269 l -8.31887,0.02894 c -1.94554,-0.01805 -2.46325,0.721315 -3.08199,1.443836 L 143.94825,104.40687 126.19223,71.498805 c -0.36763,-0.579607 -0.57376,-1.105279 -1.70171,-1.140499 z m -94.653133,0.03876 c -2.525872,0.129283 -4.082879,1.712167 -4.430221,5.109249 l 0.124024,43.457298 c -0.121227,3.07536 1.187033,4.92484 4.333068,5.19968 h 31.18621 c 1.473368,-0.37414 2.635877,-1.34153 2.707329,-2.70526 l -0.02429,-7.17631 -28.669051,-0.0233 0.24753,-34.171559 21.666894,0.123507 c 7.734977,0.522941 10.940177,4.56912 12.009603,10.276375 0.138455,10.221387 0.250631,20.341957 0.250631,30.519587 0.04332,1.60495 0.651038,3.0995 2.18798,3.15691 h 63.420424 l -6.01721,-9.7162 -47.199702,0.0925 c -2.811256,0.004 -2.80864,-1.22012 -2.757455,-3.92793 -0.138875,-9.81604 0.09286,-16.297139 -0.172599,-20.006012 C 77.776921,77.701134 68.465827,70.943847 59.702747,70.429103 H 30.978402 c -0.399676,-0.0398 -0.780177,-0.05054 -1.141015,-0.03204 z m 85.173093,21.402312 -30.178517,0.09767 c -1.420427,0.342205 -1.390455,1.153083 -1.602487,1.885673 l 0.08733,7.226954 c 0.225064,1.0433 0.579056,1.91247 1.601452,1.87637 l 36.719722,-0.0987 z"
       id="path1"
       style="fill:#fcfcfc;fill-opacity:1" />
  </g>
</svg>
